<svg xmlns="http://www.w3.org/2000/svg" width="1925" height="2786" viewBox="0 0 1925 2786" fill="none"><path d="M1 179L219 1" stroke="#2B2B2B"></path><path d="M1 363L289 115V307L1 543" stroke="#CAFC04"></path><path d="M1 869L577 1335H797L1 679" stroke="#2B2B2B"></path><path d="M3 1059L291 1295V1483L3 1249" stroke="#CAFC04"></path><path d="M1 1931L461 1535V1729L1 2113" stroke="#CAFC04"></path><path d="M1 2333L461 2717V2785" stroke="#CAFC04"></path><path d="M5 2517L319 2785" stroke="#CAFC04"></path><path d="M1923 2091L1623 1847H1403L1923 2291" stroke="#2B2B2B"></path><path d="M1921 1895L1907 1885V1693L1921 1707" stroke="#CAFC04"></path><path d="M1923 1293L1733 1447V1643L1923 1477" stroke="#CAFC04"></path><path d="M1921 743L1453 1159H1665L1921 929" stroke="#2B2B2B"></path><path d="M1923 615L1735 463V269L1923 429" stroke="#CAFC04"></path><path d="M1578 1L1922 295" stroke="#2B2B2B"></path><path d="M1808 1L1924 103" stroke="#2B2B2B"></path></svg>