<svg xmlns="http://www.w3.org/2000/svg" width="1926" height="1142" viewBox="0 0 1926 1142" fill="none"><path d="M1199.5 1139.5L1750.5 888.5L1299.5 255.5L1348.5 69.5L1855.5 805.5L1799.5 1013.5L1537.5 1139.5" stroke="#CAFC04"></path><path d="M3 337L289 203L337 11L3 181" stroke="#CAFC04"></path><path d="M1 625L391 1141" stroke="#2B2B2B"></path><path d="M957 1141L1771 631L1925 853" stroke="#2B2B2B"></path><path d="M1 133L271 1" stroke="#2B2B2B"></path><path d="M749 1139.5L1720 533.5L1332 0.5" stroke="#2B2B2B"></path><path d="M1474 1.5L1819 471.5L1923 404.5" stroke="#2B2B2B"></path><path d="M1924 546.5L1879 576.5L1924 637.5" stroke="#2B2B2B"></path><path d="M2 1076.5L49.5 1139.5" stroke="#CAFC04"></path></svg>